<?xml version="1.0" standalone="no"?><!DOCTYPE svg PUBLIC "-//W3C//DTD SVG 1.1//EN" "http://www.w3.org/Graphics/SVG/1.1/DTD/svg11.dtd"><svg t="1631104971334" class="icon" viewBox="0 0 1024 1024" version="1.1" xmlns="http://www.w3.org/2000/svg" p-id="7627" xmlns:xlink="http://www.w3.org/1999/xlink" width="200" height="200"><defs><style type="text/css"></style></defs><path d="M520.96 256c-35.2 0-64 28.8-64 64l0 192c0 35.2 28.8 64 64 64 35.2 0 64-28.8 64-64L584.96 320C584.96 284.8 556.16 256 520.96 256zM520.96 64c-247.68 0-448 200.32-448 448s200.32 448 448 448c247.68 0 448-200.32 448-448S768 64 520.96 64zM520.96 896c-211.84 0-384-172.16-384-384s172.16-384 384-384c211.84 0 384 172.16 384 384S732.8 896 520.96 896zM520.96 640c-35.2 0-64 28.8-64 64 0 35.2 28.8 64 64 64 35.2 0 64-28.8 64-64C584.96 668.8 556.16 640 520.96 640z" p-id="7628" fill="#ffffff"></path></svg>